{
  "accessors": [
    {
      "bufferView": 0,
      "componentType": 5125,
      "count": 290160,
      "type": "SCALAR"
    },
    {
      "bufferView": 1,
      "componentType": 5126,
      "count": 53773,
      "max": [
        0.161358997225761,
        0.534768998622894,
        0.0680710002779961
      ],
      "min": [
        -0.159769997000694,
        -0.00731998682022095,
        -0.0714140012860298
      ],
      "type": "VEC3"
    },
    {
      "bufferView": 2,
      "componentType": 5126,
      "count": 53773,
      "type": "VEC3"
    },
    {
      "bufferView": 3,
      "componentType": 5126,
      "count": 53773,
      "type": "VEC2"
    },
    {
      "bufferView": 4,
      "componentType": 5125,
      "count": 41712,
      "type": "SCALAR"
    },
    {
      "bufferView": 5,
      "componentType": 5126,
      "count": 7399,
      "max": [
        0.158680006861687,
        0.247142001986504,
        0.0669569969177246
      ],
      "min": [
        -0.157847002148628,
        -0.00058901309967041,
        -0.0723059996962547
      ],
      "type": "VEC3"
    },
    {
      "bufferView": 6,
      "componentType": 5126,
      "count": 7399,
      "type": "VEC3"
    },
    {
      "bufferView": 7,
      "componentType": 5126,
      "count": 7399,
      "type": "VEC2"
    }
  ],
  "asset": {
    "generator": "Adobe Substance 3D Painter 7.4.1",
    "version": "2.0"
  },
  "bufferViews": [
    {
      "buffer": 0,
      "byteLength": 1160640,
      "target": 34963
    },
    {
      "buffer": 0,
      "byteLength": 645276,
      "byteOffset": 1160640,
      "target": 34962
    },
    {
      "buffer": 0,
      "byteLength": 645276,
      "byteOffset": 1805916,
      "target": 34962
    },
    {
      "buffer": 0,
      "byteLength": 430184,
      "byteOffset": 2451192,
      "target": 34962
    },
    {
      "buffer": 0,
      "byteLength": 166848,
      "byteOffset": 2881376,
      "target": 34963
    },
    {
      "buffer": 0,
      "byteLength": 88788,
      "byteOffset": 3048224,
      "target": 34962
    },
    {
      "buffer": 0,
      "byteLength": 88788,
      "byteOffset": 3137012,
      "target": 34962
    },
    {
      "buffer": 0,
      "byteLength": 59192,
      "byteOffset": 3225800,
      "target": 34962
    }
  ],
  "buffers": [
    {
      "byteLength": 3284992,
      "uri": "COLETTE TOTE (BLACK)61080_UV v01_x03.bin"
    }
  ],
  "images": [
    {
      "uri": "Leather_baseColor.png"
    },
    {
      "uri": "Leather_occlusionRoughnessMetallic.png"
    },
    {
      "uri": "Leather_normal.png"
    },
    {
      "uri": "Leather_Metal_baseColor.png"
    },
    {
      "uri": "Leather_Metal_occlusionRoughnessMetallic.png"
    },
    {
      "uri": "Leather_Metal_normal.png"
    }
  ],
  "materials": [
    {
      "alphaMode": "OPAQUE",
      "name": "Leather",
      "normalTexture": {
        "index": 2
      },
      "occlusionTexture": {
        "index": 1
      },
      "pbrMetallicRoughness": {
        "baseColorTexture": {
          "index": 0
        },
        "metallicRoughnessTexture": {
          "index": 1
        }
      }
    },
    {
      "alphaMode": "OPAQUE",
      "name": "Leather_Metal",
      "normalTexture": {
        "index": 5
      },
      "occlusionTexture": {
        "index": 4
      },
      "pbrMetallicRoughness": {
        "baseColorTexture": {
          "index": 3
        },
        "metallicRoughnessTexture": {
          "index": 4
        }
      }
    }
  ],
  "meshes": [
    {
      "name": "COLETTE_TOTE__BLACK_61080_v08_x01:Mesh1",
      "primitives": [
        {
          "attributes": {
            "NORMAL": 2,
            "POSITION": 1,
            "TEXCOORD_0": 3
          },
          "indices": 0,
          "material": 1,
          "mode": 4
        }
      ]
    },
    {
      "name": "COLETTE_TOTE__BLACK_61080_v08_x01:Mesh1",
      "primitives": [
        {
          "attributes": {
            "NORMAL": 6,
            "POSITION": 5,
            "TEXCOORD_0": 7
          },
          "indices": 4,
          "material": 0,
          "mode": 4
        }
      ]
    }
  ],
  "nodes": [
    {
      "children": [
        1
      ],
      "name": "RootNode"
    },
    {
      "children": [
        2,
        3
      ],
      "name": "COLETTE_TOTE__BLACK_61080_v08_x01:Mesh1"
    },
    {
      "mesh": 0,
      "name": "COLETTE_TOTE__BLACK_61080_v08_x01:Mesh1"
    },
    {
      "mesh": 1,
      "name": "COLETTE_TOTE__BLACK_61080_v08_x01:Mesh1"
    }
  ],
  "samplers": [
    {
      "magFilter": 9729,
      "minFilter": 9985,
      "wrapS": 10497,
      "wrapT": 10497
    }
  ],
  "scene": 0,
  "scenes": [
    {
      "name": "Scene",
      "nodes": [
        0
      ]
    }
  ],
  "textures": [
    {
      "sampler": 0,
      "source": 0
    },
    {
      "sampler": 0,
      "source": 1
    },
    {
      "sampler": 0,
      "source": 2
    },
    {
      "sampler": 0,
      "source": 3
    },
    {
      "sampler": 0,
      "source": 4
    },
    {
      "sampler": 0,
      "source": 5
    }
  ]
}